<?xml version="1.0" encoding="UTF-8" standalone="no"?>
<!-- Created with Inkscape (http://www.inkscape.org/) -->

<svg
   width="512"
   height="512"
   viewBox="0 0 512 512"
   version="1.1"
   id="svg1"
   xml:space="preserve"
   inkscape:version="1.3.2 (091e20ef0f, 2023-11-25, custom)"
   sodipodi:docname="dagster-composable-graphs.svg"
   inkscape:export-filename="dagster-composable-graphs-plain.svg"
   inkscape:export-xdpi="96"
   inkscape:export-ydpi="96"
   xmlns:inkscape="http://www.inkscape.org/namespaces/inkscape"
   xmlns:sodipodi="http://sodipodi.sourceforge.net/DTD/sodipodi-0.dtd"
   xmlns="http://www.w3.org/2000/svg"
   xmlns:svg="http://www.w3.org/2000/svg"
   xmlns:rdf="http://www.w3.org/1999/02/22-rdf-syntax-ns#"
   xmlns:cc="http://creativecommons.org/ns#"><sodipodi:namedview
     id="namedview1"
     pagecolor="#ffffff"
     bordercolor="#eeeeee"
     borderopacity="1"
     inkscape:showpageshadow="0"
     inkscape:pageopacity="0"
     inkscape:pagecheckerboard="true"
     inkscape:deskcolor="#d1d1d1"
     inkscape:document-units="mm"
     inkscape:clip-to-page="true"
     inkscape:zoom="6.0683594"
     inkscape:cx="134.63276"
     inkscape:cy="283.19022"
     inkscape:window-width="3840"
     inkscape:window-height="2132"
     inkscape:window-x="0"
     inkscape:window-y="0"
     inkscape:window-maximized="0"
     inkscape:current-layer="g2" /><defs
     id="defs1"><marker
       style="overflow:visible"
       id="ArrowWideHeavy"
       refX="0"
       refY="0"
       orient="auto-start-reverse"
       inkscape:stockid="Wide, heavy arrow"
       markerWidth="7"
       markerHeight="7"
       viewBox="0 0 1 1"
       inkscape:isstock="true"
       inkscape:collect="always"
       preserveAspectRatio="xMidYMid"
       markerUnits="userSpaceOnUse"><path
         style="fill:context-stroke;fill-rule:evenodd;stroke:none"
         d="m 1,0 -3,3 h -2 l 3,-3 -3,-3 h 2 z"
         id="path12" /></marker><inkscape:path-effect
       effect="bspline"
       id="path-effect11"
       is_visible="true"
       lpeversion="1.3"
       weight="33.333333"
       steps="2"
       helper_size="0"
       apply_no_weight="true"
       apply_with_weight="true"
       only_selected="false"
       uniform="false" /><inkscape:path-effect
       effect="fillet_chamfer"
       id="path-effect4"
       is_visible="true"
       lpeversion="1"
       nodesatellites_param="F,0,0,1,0,0,0,1 @ F,0,0,1,0,0,0,1 @ F,0,0,1,0,0,0,1 @ F,0,0,1,0,0,0,1"
       radius="0"
       unit="px"
       method="auto"
       mode="F"
       chamfer_steps="1"
       flexible="false"
       use_knot_distance="true"
       apply_no_radius="true"
       apply_with_radius="true"
       only_selected="false"
       hide_knots="false" /><marker
       style="overflow:visible"
       id="ArrowWideHeavy-6"
       refX="0"
       refY="0"
       orient="auto-start-reverse"
       inkscape:stockid="Wide, heavy arrow"
       markerWidth="7"
       markerHeight="7"
       viewBox="0 0 1 1"
       inkscape:isstock="true"
       inkscape:collect="always"
       preserveAspectRatio="xMidYMid"
       markerUnits="userSpaceOnUse"><path
         style="fill:context-stroke;fill-rule:evenodd;stroke:none"
         d="m 1,0 -3,3 h -2 l 3,-3 -3,-3 h 2 z"
         id="path12-1" /></marker><inkscape:path-effect
       effect="bspline"
       id="path-effect11-8"
       is_visible="true"
       lpeversion="1.3"
       weight="33.333333"
       steps="2"
       helper_size="0"
       apply_no_weight="true"
       apply_with_weight="true"
       only_selected="false"
       uniform="false" /></defs><g
     inkscape:label="Layer 1"
     inkscape:groupmode="layer"
     id="layer1"><g
       style="fill:none"
       id="g1"
       transform="matrix(0.74273774,0,0,0.74273774,45.97949,-47.996929)"
       inkscape:label="dagster-logo"><path
         d="m 221.556,440.815 c 0.006,1.956 0.414,3.889 1.201,5.679 0.786,1.791 1.932,3.4 3.368,4.727 1.435,1.327 3.129,2.344 4.975,2.987 1.846,0.643 3.805,0.899 5.754,0.751 74.087,-5.304 144.059,-57.735 166.398,-139.627 1.174,-4.71 4.708,-7.072 9.417,-7.072 2.413,0.097 4.691,1.142 6.34,2.908 1.649,1.765 2.536,4.11 2.468,6.526 0,18.259 -23.471,65.98 -57.035,93.674 -1.711,1.439 -3.075,3.246 -3.99,5.286 -0.916,2.04 -1.36,4.26 -1.298,6.495 0.034,1.818 0.426,3.611 1.154,5.276 0.728,1.666 1.778,3.171 3.089,4.43 1.311,1.259 2.857,2.246 4.551,2.906 1.693,0.66 3.5,0.978 5.316,0.938 2.941,0 7.649,-1.768 13.531,-7.072 C 410.266,408.412 455,348.909 455,283.508 455,187.624 380.872,105 277.418,105 c -92.312,0 -172.28,75.414 -172.28,162.611 0,57.734 45.866,101.326 106.422,101.326 46.459,0 89.385,-32.984 101.148,-78.357 1.173,-4.71 4.694,-7.072 9.402,-7.072 2.415,0.098 4.694,1.142 6.345,2.907 1.651,1.766 2.541,4.11 2.478,6.527 0,20.622 -38.811,92.542 -117.606,92.542 -18.818,0 -42.331,-5.304 -58.803,-14.738 -2.205,-1.069 -4.607,-1.671 -7.055,-1.768 -1.875,-0.072 -3.744,0.245 -5.49,0.931 -1.747,0.685 -3.332,1.725 -4.658,3.053 -1.325,1.329 -2.361,2.917 -3.043,4.665 -0.682,1.749 -0.995,3.62 -0.919,5.495 0.076,2.402 0.764,4.745 1.998,6.807 1.235,2.062 2.975,3.774 5.057,4.975 21.759,12.43 47.633,18.853 74.087,18.853 65.858,0 125.834,-44.779 143.479,-110.76 1.174,-4.71 4.708,-7.071 9.403,-7.071 2.414,0.097 4.694,1.141 6.345,2.906 1.651,1.766 2.541,4.111 2.477,6.527 0,27.1 -48.213,114.296 -141.118,121.368 -3.595,0.267 -6.964,1.852 -9.462,4.453 -2.497,2.6 -3.946,6.031 -4.069,9.635 z"
         fill="#4f43dd"
         id="path1" /><path
         d="m 313.62,215.178 c 12.681,-0.095 25.128,3.411 35.897,10.11 1.088,-5.958 1.689,-11.996 1.795,-18.052 0,-27.97 -21.317,-53.025 -47.274,-53.025 -20.185,0 -32.805,16.726 -32.805,37.389 -0.096,11.163 3.824,21.988 11.046,30.498 9.783,-4.667 20.503,-7.034 31.341,-6.92 z"
         fill="#ffffff"
         id="path2" /><path
         d="m 374.439,316.505 c 3.603,-12.32 5.191,-20.87 5.191,-26.422 -0.11,-2.398 -1.137,-4.662 -2.869,-6.323 -1.733,-1.661 -4.037,-2.592 -6.436,-2.6 -2.236,0.042 -4.393,0.83 -6.129,2.239 -1.736,1.409 -2.952,3.358 -3.453,5.537 -0.981,4.047 -3.079,15.014 -5.15,21.976 0.856,-2.606 1.638,-5.254 2.347,-7.942 1.174,-4.724 4.708,-7.072 9.402,-7.072 2.414,0.093 4.693,1.135 6.345,2.898 1.651,1.763 2.541,4.106 2.478,6.522 -0.111,3.797 -0.719,7.563 -1.809,11.201 z"
         fill="#352d8e"
         id="path3" /><path
         d="m 424.418,303.632 c -0.113,-2.395 -1.14,-4.655 -2.868,-6.315 -1.729,-1.659 -4.028,-2.593 -6.424,-2.608 -2.233,0.045 -4.387,0.834 -6.12,2.243 -1.734,1.408 -2.947,3.356 -3.448,5.533 -0.994,4.144 -3.134,15.276 -5.233,22.224 h 0.097 c 1.022,-3.094 1.974,-6.229 2.761,-9.42 1.174,-4.724 4.708,-7.072 9.416,-7.072 2.413,0.094 4.691,1.136 6.34,2.899 1.649,1.764 2.536,4.107 2.469,6.521 -0.067,2.932 -0.47,5.848 -1.201,8.688 2.927,-10.276 4.211,-17.707 4.211,-22.693 z"
         fill="#352d8e"
         id="path4" /><path
         d="m 313.619,215.178 c 6.302,-0.012 12.577,0.829 18.653,2.5 3.19,-4.352 4.784,-9.67 4.514,-15.06 -0.27,-5.39 -2.388,-10.523 -5.997,-14.534 -3.609,-4.011 -8.489,-6.656 -13.819,-7.49 -5.33,-0.833 -10.785,0.195 -15.446,2.913 l 9.665,15.912 -18.1,-7.832 c -2.452,3.958 -3.682,8.552 -3.534,13.206 0.147,4.653 1.665,9.16 4.362,12.954 6.423,-1.731 13.05,-2.595 19.702,-2.569 z"
         fill="#030615"
         id="path5" /><path
         d="m 174.172,317.583 c 7.625,0 13.807,-6.184 13.807,-13.812 0,-7.628 -6.182,-13.812 -13.807,-13.812 -7.625,0 -13.807,6.184 -13.807,13.812 0,7.628 6.182,13.812 13.807,13.812 z"
         fill="#352d8e"
         id="path6" /><path
         d="m 174.172,262.335 c 7.625,0 13.807,-6.184 13.807,-13.812 0,-7.628 -6.182,-13.812 -13.807,-13.812 -7.625,0 -13.807,6.184 -13.807,13.812 0,7.628 6.182,13.812 13.807,13.812 z"
         fill="#352d8e"
         id="path7" /><path
         d="m 146.558,289.958 c 7.625,0 13.806,-6.184 13.806,-13.812 0,-7.628 -6.181,-13.812 -13.806,-13.812 -7.626,0 -13.807,6.184 -13.807,13.812 0,7.628 6.181,13.812 13.807,13.812 z"
         fill="#352d8e"
         id="path8" /><path
         d="m 208.688,368.91 h 2.762 c 46.459,0 89.385,-32.983 101.148,-78.356 1.173,-4.71 4.694,-7.072 9.402,-7.072 2.415,0.097 4.694,1.142 6.345,2.907 1.651,1.766 2.541,4.11 2.478,6.527 -0.211,4.821 -1.301,9.563 -3.217,13.992 0.333,-0.515 0.624,-1.055 0.87,-1.616 3.493,-7.988 5.298,-16.613 5.301,-25.332 0,-13.55 -9.416,-22.389 -22.933,-22.389 -23.568,0 -28.29,20.58 -38.23,42.583 -10.314,22.845 -29.257,47.555 -77.028,47.555 -49.635,0 -100.6373,-34.765 -88.197,-105.456 0.151,-0.884 0.276,-1.671 0.372,-2.403 -1.822,9.132 -2.747,18.422 -2.761,27.734 0.138,56.907 44.582,100.001 103.688,101.326 z"
         fill="#352d8e"
         id="path9" /></g><g
       id="g11"
       inkscape:label="braces"
       style="fill:#868686;fill-opacity:1"
       transform="matrix(1,0,0,1.2569215,-0.65620059,74.996386)"><path
         d="m 119.04163,256.08493 v 18.57586 h -7.99794 q -32.120759,0 -43.085676,-9.54592 -10.835918,-9.54593 -10.835918,-38.05472 v -30.83076 q 0,-19.47886 -6.965948,-26.9608 -6.965947,-7.48194 -25.283809,-7.48194 h -7.86894 v -18.44686 h 7.86894 q 18.446861,0 25.283809,-7.35295 6.965948,-7.48194 6.965948,-26.7028 V 78.324278 q 0,-28.508785 10.835918,-37.925713 10.964917,-9.545928 43.085676,-9.545928 h 7.99794 v 18.44686 h -8.77194 q -18.188859,0 -23.735817,5.675957 -5.546958,5.675957 -5.546958,23.86482 v 31.991756 q 0,20.25285 -5.933955,29.41178 -5.804956,9.15893 -19.994849,12.38391 14.318892,3.48297 20.123848,12.6419 5.804956,9.15893 5.804956,29.28278 v 31.99176 q 0,18.18886 5.546958,23.86482 5.546958,5.67595 23.735817,5.67595 z"
         id="text1"
         style="font-size:264.19px;line-height:1.25;stroke-width:6.60474"
         inkscape:label="left-brace"
         aria-label="{" /><path
         d="m 396.57655,253.79984 h 9.02993 q 18.05986,0 23.47782,-5.54696 5.54696,-5.54696 5.54696,-23.99382 V 192.2673 q 0,-20.12384 5.80495,-29.28277 5.80496,-9.15894 20.12385,-12.64191 -14.31889,-3.22497 -20.12385,-12.38391 -5.80495,-9.15893 -5.80495,-29.41177 V 76.555179 q 0,-18.317862 -5.54696,-23.86482 -5.41796,-5.675957 -23.47782,-5.675957 h -9.02993 V 28.567541 h 8.12693 q 32.12076,0 42.82768,9.545928 10.83592,9.416929 10.83592,37.925714 v 30.959767 q 0,19.22085 6.96595,26.7028 6.96594,7.35294 25.2838,7.35294 h 7.99794 v 18.44686 h -7.99794 q -18.31786,0 -25.2838,7.48194 -6.96595,7.48195 -6.96595,26.9608 v 30.83077 q 0,28.50878 -10.83592,38.05471 -10.70692,9.54593 -42.82768,9.54593 h -8.12693 z"
         id="text2"
         style="font-size:264.19px;line-height:1.25;stroke-width:6.60474"
         inkscape:label="right-brace"
         aria-label="}" /></g><g
       id="g2"
       inkscape:label="graph"
       transform="translate(20.877525,-22.883458)"
       style="fill:#a6a6a6;fill-opacity:1"><path
         style="fill:none;fill-opacity:1;stroke:#a6a6a6;stroke-width:10;stroke-linecap:butt;stroke-linejoin:miter;stroke-miterlimit:3;stroke-dasharray:none;stroke-opacity:1;marker-end:url(#ArrowWideHeavy)"
         d="m 177.07592,327.96337 c 8.03292,-4.70561 16.06566,-9.41112 29.61985,-10.97951 13.55419,-1.56839 32.62832,4.4e-4 52.10957,5.08746 19.48124,5.08702 39.36759,13.69177 59.25435,22.2967"
         id="path11"
         inkscape:path-effect="#path-effect11"
         inkscape:original-d="m 177.07592,327.96337 c 8.03292,-4.70561 16.06566,-9.41112 24.09873,-14.11683 19.07531,1.56893 38.14944,3.13776 57.22476,4.70669 19.88717,8.60511 39.77352,17.20986 59.66028,25.81479"
         sodipodi:nodetypes="cccc"
         transform="translate(-11.193595,18.857677)"
         inkscape:label="link2" /><path
         style="fill:none;fill-opacity:1;stroke:#a6a6a6;stroke-width:10;stroke-linecap:butt;stroke-linejoin:miter;stroke-miterlimit:3;stroke-dasharray:none;stroke-opacity:1;marker-end:url(#ArrowWideHeavy-6)"
         d="m 178.76259,329.05823 c 3.83387,11.71851 7.66766,23.43679 14.32005,34.43385 6.6524,10.99706 16.12267,21.27179 31.86497,26.91721 15.74231,5.64542 37.75515,6.66085 59.76844,7.67629"
         id="path11-2"
         inkscape:path-effect="#path-effect11-8"
         inkscape:original-d="m 178.76259,329.05823 c 3.83387,11.71851 7.66766,23.43679 11.5016,35.15554 9.47085,10.27537 18.94112,20.5501 28.41198,30.82548 22.01375,1.01546 44.02659,2.03088 66.03988,3.04633"
         sodipodi:nodetypes="cccc"
         transform="translate(-31.612685,61.971557)"
         inkscape:label="link1" /><circle
         style="fill:#7d7d7d;fill-opacity:1;fill-rule:evenodd"
         id="path10"
         cx="137.97682"
         cy="361.69971"
         r="32.749203"
         inkscape:label="node3" /><circle
         style="fill:#7d7d7d;fill-opacity:1;fill-rule:evenodd"
         id="path10-2"
         cx="137.97682"
         cy="361.69971"
         r="32.749203"
         inkscape:label="node2"
         transform="translate(205.93891,14.382157)" /><circle
         style="fill:#7d7d7d;fill-opacity:1;fill-rule:evenodd"
         id="path10-0"
         cx="137.97682"
         cy="361.69971"
         r="32.749203"
         inkscape:label="node1"
         transform="translate(154.4929,97.944527)" /></g></g><metadata
     id="metadata1"><rdf:RDF><cc:License
         rdf:about="http://creativecommons.org/licenses/by/4.0/"><cc:permits
           rdf:resource="http://creativecommons.org/ns#Reproduction" /><cc:permits
           rdf:resource="http://creativecommons.org/ns#Distribution" /><cc:requires
           rdf:resource="http://creativecommons.org/ns#Notice" /><cc:requires
           rdf:resource="http://creativecommons.org/ns#Attribution" /><cc:permits
           rdf:resource="http://creativecommons.org/ns#DerivativeWorks" /></cc:License><cc:Work
         rdf:about=""><cc:license
           rdf:resource="http://creativecommons.org/licenses/by/4.0/" /></cc:Work></rdf:RDF></metadata></svg>
